<?xml version="1.0" encoding="UTF-8"?>
<!DOCTYPE svg PUBLIC "-//W3C//DTD SVG 1.1//EN" "http://www.w3.org/Graphics/SVG/1.1/DTD/svg11.dtd">
<!-- Creator: CorelDRAW 2021.5 -->
<svg xmlns="http://www.w3.org/2000/svg" xml:space="preserve" width="110.49mm" height="17.7798mm" version="1.1" style="shape-rendering:geometricPrecision; text-rendering:geometricPrecision; image-rendering:optimizeQuality; fill-rule:evenodd; clip-rule:evenodd"
viewBox="0 0 110.4898 17.7798"
 xmlns:xlink="http://www.w3.org/1999/xlink"
 xmlns:xodm="http://www.corel.com/coreldraw/odm/2003">
 <defs>
  <style type="text/css">
   <![CDATA[
    .fil1 {fill:#3491B8}
    .fil0 {fill:#C7252F}
   ]]>
  </style>
 </defs>
 <g id="Layer_x0020_1">
  <metadata id="CorelCorpID_0Corel-Layer"/>
  <path class="fil0" d="M0.7628 0.2041l12.7516 0c0.3262,0 0.5933,0.2674 0.5933,0.5936 0,0.3265 -0.2671,0.5939 -0.5933,0.5939l-11.6612 0c-0.2732,0 -0.4968,0.2233 -0.4968,0.4967l0 5.7362c0,0.2735 0.2236,0.4968 0.4968,0.4968l11.6612 0c0.3262,0 0.5933,0.2672 0.5933,0.5936 0,0.3264 -0.2671,0.5936 -0.5933,0.5936l-12.7516 0 -0.0154 -0.0003 -0.0151 -0.0002 -0.0152 -0.0014 -0.0147 -0.0012 -0.0149 -0.0016 -0.0147 -0.0023 -0.0147 -0.0021 -0.0145 -0.0028 -0.0145 -0.0031 -0.0142 -0.0037 -0.0142 -0.004 -0.0138 -0.0042 -0.014 -0.0044 -0.0138 -0.0047 -0.0133 -0.0053 -0.0135 -0.0056 -0.0133 -0.0056 -0.0128 -0.0061 -0.0131 -0.0068 -0.0126 -0.0065 -0.0126 -0.007 -0.0124 -0.0075 -0.0119 -0.0072 -0.0121 -0.0082 -0.0117 -0.0081 -0.0116 -0.0082 -0.0112 -0.0091 -0.0112 -0.0086 -0.011 -0.0096 -0.0105 -0.0091 -0.0105 -0.0098 -0.0103 -0.0098 -0.0098 -0.0103 -0.0098 -0.0107 -0.0095 -0.0105 -0.0091 -0.0107 -0.0091 -0.0112 -0.0087 -0.0115 -0.0084 -0.0114 -0.0081 -0.0117 0 -0.0004 -0.008 -0.0117 -0.0074 -0.0124 -0.0073 -0.0119 -0.0072 -0.0126 -0.0068 -0.0128 -0.0063 -0.0128 -0.006 -0.0133 -0.0059 -0.0131 -0.0056 -0.0131 0 -0.0004 -0.0051 -0.0133 -0.0049 -0.014 -0.0044 -0.0138 -0.0042 -0.014 -0.0038 -0.0138 0 -0.0004 -0.0037 -0.0143 -0.003 -0.0142 0 -0.0002 -0.0028 -0.014 0 -0.0003 -0.0024 -0.0144 0 -0.0005 -0.0021 -0.0145 -0.0018 -0.0147 0 -0.0004 -0.0012 -0.0145 0 -0.0002 -0.0009 -0.0152 0 -0.0002 -0.0007 -0.015 0 -0.0002 -0.0003 -0.0147 0 -0.0002 0 -7.9172 0.0003 -0.0151 0 -0.0003 0.0007 -0.0147 0 -0.0004 0.0009 -0.0147 0.0012 -0.0152 0 -0.0002 0.0018 -0.0145 0.0021 -0.0149 0 -0.0003 0.0024 -0.014 0 -0.0002 0.0028 -0.0145 0.003 -0.0147 0.0037 -0.0142 0.0038 -0.014 0 -0.0002 0.0042 -0.0138 0 -0.0002 0.0044 -0.0138 0.0049 -0.0133 0.0051 -0.0138 0 -0.0002 0.0056 -0.0131 0.0059 -0.0133 0.006 -0.013 0 -0.0003 0.0063 -0.0126 0.0068 -0.0126 0.0072 -0.0128 0.0073 -0.0124 0.0074 -0.0116 0 -0.0003 0.008 -0.0121 0.0081 -0.0114 0.0084 -0.0115 0 -0.0002 0.0087 -0.0112 0.0091 -0.0112 0.0091 -0.011 0 -0.0002 0.0095 -0.0103 0.0098 -0.0107 0.0098 -0.01 0.0103 -0.0098 0.0105 -0.0101 0.0105 -0.0095 0.011 -0.0089 0.0112 -0.0093 0.0112 -0.0087 0.0116 -0.0084 0.0117 -0.0081 0.0121 -0.0077 0.0119 -0.0075 0.0124 -0.0075 0.0126 -0.007 0.0126 -0.0067 0.0131 -0.0066 0.0128 -0.0058 0.0133 -0.0058 0.0135 -0.0056 0.0133 -0.0054 0.0138 -0.0044 0.014 -0.0049 0.0138 -0.0042 0.0142 -0.0035 0.0142 -0.0038 0.0145 -0.0032 0.0145 -0.0028 0.0147 -0.0024 0.0147 -0.0018 0.0149 -0.0019 0.0147 -0.0012 0.0152 -0.0011 0.0151 -0.0005 0.0154 -0.0005zm-0.4461 11.9652l49.4681 0c0.0809,0 0.1477,0.0665 0.1477,0.1477l0 0.001c0,0.0814 -0.0668,0.1481 -0.1477,0.1481l-49.4681 0c-0.0807,0 -0.1475,-0.0667 -0.1475,-0.1481l0 -0.001c0,-0.0812 0.0668,-0.1477 0.1475,-0.1477zm42.1723 -3.4542l0 -0.0002 0 -7.9172c0,-0.3262 0.2671,-0.5936 0.5936,-0.5936 0.3264,0 0.5938,0.2674 0.5938,0.5936l0 6.8268c0,0.2735 0.2233,0.4968 0.4968,0.4968l8.7412 0c0.3267,0 0.5939,0.2672 0.5939,0.5936 0,0.3264 -0.2672,0.5936 -0.5939,0.5936l-9.8316 0 -0.0002 0 -0.0152 -0.0003 -0.0002 0 -0.015 -0.0002 -0.0002 0 -0.0147 -0.0014 -0.0002 0 -0.0147 -0.0012 -0.0003 0 -0.0147 -0.0016 -0.0002 0 -0.0147 -0.0023 -0.0145 -0.0021 -0.0002 0 -0.0142 -0.0028 -0.0003 0 -0.0142 -0.0031 -0.0002 0 -0.0143 -0.0037 -0.014 -0.004 -0.014 -0.0042 -0.0137 -0.0044 -0.0003 0 -0.0135 -0.0047 -0.0135 -0.0053 -0.0136 -0.0056 -0.013 -0.0056 -0.0131 -0.0061 -0.0128 -0.0068 -0.0003 0 -0.0126 -0.0065 -0.0123 -0.007 -0.0003 0 -0.0121 -0.0075 -0.0002 0 -0.0119 -0.0072 -0.0122 -0.0082 -0.0116 -0.0081 -0.0115 -0.0082 -0.0002 0 -0.0112 -0.0091 -0.011 -0.0086 -0.0002 0 -0.0107 -0.0096 -0.0003 0 -0.0105 -0.0091 -0.0105 -0.0098 -0.01 -0.0098 -0.01 -0.0103 -0.0098 -0.0107 -0.0096 -0.0105 -0.0091 -0.0107 -0.0091 -0.0112 -0.0086 -0.0115 -0.0084 -0.0114 -0.0082 -0.0117 0 -0.0004 -0.0077 -0.0117 -0.0077 -0.0124 -0.0072 -0.0119 -0.007 -0.0126 -0.007 -0.0128 -0.0063 -0.0128 -0.0061 -0.0133 -0.0058 -0.0131 -0.0056 -0.0131 0 -0.0004 -0.0052 -0.0133 -0.0046 -0.014 -0.0047 -0.0138 -0.0042 -0.014 -0.0037 -0.0138 0 -0.0004 -0.0035 -0.0143 -0.0033 -0.0142 0 -0.0002 -0.0028 -0.014 0 -0.0003 -0.0023 -0.0144 0 -0.0005 -0.0021 -0.0145 -0.0019 -0.0147 0 -0.0004 -0.0012 -0.0145 0 -0.0002 -0.0009 -0.0152 0 -0.0002 -0.0007 -0.015 0 -0.0002 -0.0002 -0.0147zm11.4969 -7.3235c0.2735,0 0.4968,0.2233 0.4968,0.4967l0 4.7301c0,0.3262 0.2671,0.5934 0.5935,0.5934 0.3267,0 0.5936,-0.2672 0.5936,-0.5934l0 -5.8204 0 -0.0003 -0.0002 -0.0151 0 -0.0003 -0.0005 -0.0147 0 -0.0004 -0.0009 -0.0145 0 -0.0002 -0.0014 -0.015 0 -0.0002 -0.0016 -0.0145 0 -0.0002 -0.0021 -0.0149 0 -0.0003 -0.0024 -0.014 0 -0.0002 -0.003 -0.0142 0 -0.0003 -0.003 -0.0144 0 -0.0003 -0.0035 -0.0142 -0.004 -0.014 0 -0.0002 -0.004 -0.0138 0 -0.0002 -0.0046 -0.0133 0 -0.0005 -0.0049 -0.0133 -0.0052 -0.0138 0 -0.0002 -0.0053 -0.0131 -0.0059 -0.0133 -0.0002 0 -0.0061 -0.013 0 -0.0003 -0.0063 -0.0126 -0.0067 -0.0126 -0.007 -0.0126 0 -0.0002 -0.0073 -0.0121 0 -0.0003 -0.0077 -0.0116 0 -0.0003 -0.0079 -0.0121 -0.0079 -0.0114 -0.0087 -0.0115 0 -0.0002 -0.0086 -0.0112 0 -0.0002 -0.0089 -0.011 -0.0002 0 -0.0091 -0.011 0 -0.0002 -0.0096 -0.0103 -0.0095 -0.0107 -0.0101 -0.01 -0.01 -0.0098 -0.0002 -0.0003 -0.0103 -0.0098 -0.0002 0 -0.0105 -0.0095 -0.011 -0.0089 -0.011 -0.0093 -0.0114 -0.0087 -0.0117 -0.0084 -0.0116 -0.0081 -0.0119 -0.0077 -0.0122 -0.0075 -0.0123 -0.0075 0 -0.0002 -0.0126 -0.0068 -0.0126 -0.0067 -0.0129 -0.0066 -0.0002 0 -0.0128 -0.0058 -0.0003 0 -0.013 -0.0058 -0.0133 -0.0056 -0.0003 0 -0.0133 -0.0054 -0.0002 0 -0.0135 -0.0044 -0.0138 -0.0049 -0.0002 0 -0.0138 -0.0042 -0.0002 0 -0.0138 -0.0035 -0.0002 0 -0.0143 -0.0038 -0.0144 -0.0032 -0.0145 -0.0028 -0.0145 -0.0024 -0.0002 0 -0.0147 -0.0018 -0.0149 -0.0019 -0.015 -0.0012 -0.0149 -0.0011 -0.0002 0 -0.015 -0.0005 -0.0002 0 -0.0152 -0.0005 -10.018 0c-0.3264,0 -0.5936,0.2674 -0.5936,0.5939 0,0.3262 0.2669,0.5936 0.5936,0.5936l8.9277 0zm-25.9408 -1.1875l12.5343 0c0.3269,0 0.5938,0.2674 0.5938,0.5936 0,0.3265 -0.2669,0.5939 -0.5938,0.5939l-11.444 0c-0.2734,0 -0.4967,0.2233 -0.4967,0.4967l0 5.7362c0,0.2735 0.2233,0.4968 0.4967,0.4968l10.3539 0c0.2732,0 0.4967,-0.2233 0.4967,-0.4968l0 -1.7852c0,-0.2734 -0.2235,-0.4967 -0.4967,-0.4967l-3.1386 0c-0.3264,0 -0.5933,-0.2674 -0.5933,-0.5939 0,-0.3262 0.2669,-0.5936 0.5933,-0.5936l4.2289 0c0.3064,0 0.5605,0.2355 0.5904,0.5344l0.0014 0.014 0 0.0007 0.0009 0.014 0 0.0011 0.0007 0.014 0 0.0014 0.0002 0.014 0 0.0012 0 3.965 0 0.0002 -0.0002 0.0147 0 0.0002 -0.0007 0.015 0 0.0002 -0.0009 0.0152 0 0.0002 -0.0014 0.0145 0 0.0004 -0.0017 0.0147 -0.0021 0.0145 0 0.0005 -0.0023 0.0144 -0.0028 0.0143 0 0.0002 -0.0033 0.0142 -0.0035 0.0143 -0.0039 0.0142 -0.004 0.014 -0.0047 0.0138 -0.0046 0.014 -0.0052 0.0133 -0.0056 0.0135 -0.0058 0.0131 -0.0061 0.0133 -0.0065 0.0128 -0.0065 0.0128 -0.0003 0 -0.0067 0.0126 -0.0003 0 -0.0072 0.0119 -0.0075 0.0124 -0.0002 0 -0.0077 0.0117 -0.0002 0 -0.008 0.0121 -0.0084 0.0114 -0.0088 0.0115 -0.0089 0.0112 -0.0093 0.0107 -0.0094 0.0105 -0.0098 0.0107 -0.0098 0.0103 -0.0002 0 -0.01 0.0098 -0.0003 0 -0.0102 0.0098 -0.0108 0.0091 -0.0107 0.0096 -0.0002 0 -0.011 0.0086 -0.0112 0.0091 -0.0002 0 -0.0115 0.0082 -0.0235 0.0163 -0.0003 0 -0.0121 0.0072 -0.0121 0.0075 -0.0003 0 -0.0123 0.007 -0.0003 0 -0.0126 0.0065 -0.0128 0.0068 -0.0131 0.0061 -0.0133 0.0056 -0.0133 0.0056 -0.0135 0.0053 -0.0138 0.0047 -0.0137 0.0044 -0.014 0.0042 -0.0143 0.004 -0.0142 0.0037 -0.0002 0 -0.014 0.0031 -0.0003 0 -0.0144 0.0028 -0.0147 0.0021 -0.0147 0.0023 -0.0003 0 -0.0144 0.0016 -0.0003 0 -0.0149 0.0012 -0.0149 0.0014 -0.0003 0 -0.0151 0.0002 -0.0152 0.0003 -12.5343 0 -0.0003 0 -0.0149 -0.0003 -0.0002 0 -0.015 -0.0002 -0.0002 0 -0.0149 -0.0014 -0.0003 0 -0.0147 -0.0012 -0.0002 0 -0.0147 -0.0016 -0.0002 0 -0.0143 -0.0023 -0.0002 0 -0.0145 -0.0021 -0.0002 0 -0.0145 -0.0028 -0.0002 0 -0.014 -0.0031 -0.0002 0 -0.014 -0.0037 -0.0003 0 -0.014 -0.004 -0.0002 0 -0.0138 -0.0042 -0.0002 0 -0.0135 -0.0044 -0.0003 0 -0.0135 -0.0047 -0.0002 0 -0.0133 -0.0053 -0.0003 0 -0.013 -0.0056 -0.0003 0 -0.013 -0.0056 -0.0003 0 -0.0128 -0.0061 -0.0002 0 -0.0126 -0.0068 -0.0003 0 -0.0126 -0.0065 -0.0123 -0.007 -0.0245 -0.0147 -0.0003 0 -0.0119 -0.0082 -0.0116 -0.0081c-0.0077,-0.0054 -0.0157,-0.011 -0.0229,-0.0173l-0.0112 -0.0086c-0.011,-0.0091 -0.0217,-0.0187 -0.0317,-0.0285l-0.0003 0 -0.01 -0.0098 -0.0002 0 -0.0098 -0.0103 -0.0098 -0.0107 -0.0093 -0.0105 -0.0003 0 -0.0091 -0.0107 -0.0088 -0.0112 -0.0003 0 -0.0086 -0.0115 -0.0166 -0.0231 0 -0.0004 -0.0079 -0.0117 -0.0075 -0.0124 -0.0074 -0.0119 -0.007 -0.0126 -0.0131 -0.0256 -0.0061 -0.0133 -0.0058 -0.0131 -0.0107 -0.0268 -0.0049 -0.014 -0.0087 -0.0278 -0.0039 -0.0138 0 -0.0004 -0.0035 -0.0143 -0.0031 -0.0142 0 -0.0002 -0.0028 -0.014 0 -0.0003 -0.0023 -0.0144 0 -0.0005 -0.0023 -0.0145 -0.0017 -0.0147 0 -0.0004 -0.0014 -0.0145 0 -0.0002 -0.0009 -0.0152 0 -0.0002 -0.0005 -0.015 0 -0.0002 -0.0002 -0.0147 0 -0.0002 0 -7.9172 0.0002 -0.0151 0 -0.0003 0.0005 -0.0147 0 -0.0004 0.0009 -0.0147 0.0014 -0.0152 0 -0.0002 0.0017 -0.0145 0.0023 -0.0149 0 -0.0003 0.0023 -0.014 0 -0.0002 0.0028 -0.0145 0.0031 -0.0147 0.0035 -0.0142 0.0039 -0.014 0 -0.0002 0.0042 -0.0138 0 -0.0002 0.0045 -0.0138 0.0049 -0.0133 0.0051 -0.0138 0 -0.0002 0.0056 -0.0131 0.0058 -0.0133 0.0061 -0.013 0 -0.0003 0.0063 -0.0126 0.0002 0 0.0066 -0.0126 0.007 -0.0128 0.0074 -0.0124 0.0075 -0.0116 0 -0.0003 0.0079 -0.0121 0.0082 -0.0114 0.0084 -0.0115 0 -0.0002 0.0086 -0.0112 0.0003 0 0.0088 -0.0112 0.0091 -0.011 0.0003 -0.0002 0.0093 -0.0103 0.0098 -0.0107 0.0098 -0.01 0.0002 0 0.01 -0.0098 0.0003 0 0.0102 -0.0101 0.0215 -0.0184 0.0112 -0.0093 0.0229 -0.0171 0.0116 -0.0081 0.0119 -0.0077 0.0003 0 0.0245 -0.015 0.0123 -0.007 0.0126 -0.0067 0.0003 0 0.0126 -0.0066 0.0002 0 0.0128 -0.0058 0.0003 0 0.013 -0.0058 0.0003 0 0.013 -0.0056 0.0003 0 0.0133 -0.0054 0.0002 0 0.0135 -0.0044 0.0003 0 0.0135 -0.0049 0.0002 0 0.0138 -0.0042 0.0002 0 0.014 -0.0035 0.0003 0 0.014 -0.0038 0.0002 0 0.014 -0.0032 0.0002 0 0.0145 -0.0028 0.0002 0 0.0145 -0.0024 0.0002 0 0.0143 -0.0018 0.0002 0 0.0147 -0.0019 0.0002 0 0.0147 -0.0012 0.0003 0 0.0149 -0.0011 0.0002 0 0.015 -0.0005 0.0002 0 0.0149 -0.0005 0.0003 0zm-12.6214 8.511l0 -6.0628c0,-0.3262 0.2672,-0.5932 0.5934,-0.5932 0.3267,0 0.5938,0.267 0.5938,0.5932l0 6.0628c0,0.3262 -0.2671,0.5934 -0.5938,0.5934 -0.3262,0 -0.5934,-0.2672 -0.5934,-0.5934zm9.5246 -5.0567c0,0.2734 -0.2235,0.4967 -0.4968,0.4967l-4.482 0c-0.3264,0 -0.5936,0.2674 -0.5936,0.5936 0,0.1706 0.0733,0.3258 0.1897,0.4345l3.9393 3.9344c0.1092,0.1295 0.2726,0.2121 0.4539,0.2121l1.567 0c0.3264,0 0.5936,-0.2672 0.5936,-0.5936 0,-0.3266 -0.2672,-0.5936 -0.5936,-0.5936l-1.3169 0 -2.8037 -2.7999 4.1365 0 0.0002 0 0.0152 -0.0003 0.0002 0 0.0147 -0.0007 0.0002 0 0.015 -0.0007 0.0002 0 0.0147 -0.0014 0.0002 0 0.0147 -0.0018 0.0003 0 0.0144 -0.0021 0.0003 0 0.0144 -0.0026 0.0003 0 0.0142 -0.0028 0.0002 0 0.0143 -0.0028 0.0002 0 0.014 -0.0037 0.0002 0 0.014 -0.0038 0.0003 0 0.0137 -0.0042 0.0003 0 0.0135 -0.0044 0.0002 0 0.0136 -0.0051 0.0002 0 0.0133 -0.0052 0.0002 0 0.0133 -0.0056 0.0131 -0.0058 0.0002 0 0.0129 -0.0061 0.0002 0 0.0126 -0.006 0.0002 0 0.0126 -0.0068 0.0126 -0.007 0.0122 -0.0077 0.0002 0 0.024 -0.0152 0.0117 -0.0081 0.0117 -0.0084 0.0112 -0.0087 0.0112 -0.0093 0.0107 -0.0089 0.0002 0 0.0105 -0.0098 0.0003 0 0.0102 -0.0095 0.0003 0 0.01 -0.0101 0.01 -0.01 0.0096 -0.0107 0.0096 -0.0105 0.0091 -0.011 0.0002 0 0.0086 -0.0112 0.0003 0 0.0086 -0.0112 0.0084 -0.0117 0.0082 -0.0114 0.0079 -0.0121 0.0077 -0.0119 0 -0.0003 0.0072 -0.0123 0.007 -0.0126 0.0068 -0.0126 0.0063 -0.0129 0.0061 -0.0128 0.0002 -0.0002 0.0056 -0.0133 0.0056 -0.0131 0 -0.0002 0.0051 -0.0136 0 -0.0002 0.0049 -0.0133 0 -0.0005 0.0047 -0.0133 0 -0.0002 0.004 -0.0138 0 -0.0002 0.0039 -0.014 0.0035 -0.0142 0.0031 -0.0145 0.0028 -0.0147 0.0025 -0.0145 0.0021 -0.0149 0.0017 -0.0147 0.0014 -0.0152 0.0009 -0.0149 0.0005 -0.0149 0 -0.0003 0.0002 -0.0154 0 -3.951 -0.0002 -0.0154 -0.0005 -0.0151 -0.0009 -0.0147 -0.0014 -0.0152 0 -0.0002 -0.0017 -0.0145 -0.0021 -0.0152 -0.0025 -0.0142 -0.0028 -0.0145 -0.0031 -0.0147 -0.0035 -0.0142 -0.0039 -0.0142 -0.004 -0.014 -0.0047 -0.0138 -0.0049 -0.0133 -0.0051 -0.014 -0.0056 -0.0131 -0.0056 -0.0133 -0.0002 0 -0.0061 -0.0133 -0.0063 -0.0126 -0.0068 -0.0126 -0.007 -0.0128 -0.0072 -0.0124 -0.0077 -0.0119 -0.0079 -0.0121 -0.0082 -0.0114 -0.0084 -0.0117 -0.0086 -0.0112 -0.0003 -0.0002 -0.0086 -0.011 -0.0002 0 -0.0091 -0.0112 -0.0096 -0.0103 -0.0096 -0.0107 -0.01 -0.01 -0.01 -0.0098 -0.0003 -0.0003 -0.0102 -0.0098 -0.0003 0 -0.0105 -0.0095 -0.0002 0 -0.0107 -0.0089 -0.0112 -0.0093 -0.0112 -0.0087 -0.0117 -0.0084 -0.0117 -0.0081 -0.0119 -0.0077 -0.0002 0 -0.0119 -0.0075 -0.0002 0 -0.0122 -0.0075 0 -0.0002 -0.0126 -0.0068 -0.0126 -0.0067 -0.0002 0 -0.0126 -0.0066 -0.0002 0 -0.0129 -0.0058 -0.0002 0 -0.0131 -0.0058 -0.0133 -0.0056 -0.0002 0 -0.0133 -0.0054 -0.0002 0 -0.0136 -0.0044 -0.0002 0 -0.0135 -0.0049 -0.0003 0 -0.0137 -0.0042 -0.0003 0 -0.014 -0.0035 -0.0002 0 -0.014 -0.0038 -0.0002 0 -0.0143 -0.0032 -0.0002 0 -0.0142 -0.0028 -0.0003 0 -0.0144 -0.0024 -0.0003 0 -0.0144 -0.0018 -0.0003 0 -0.0147 -0.0019 -0.0002 0 -0.0147 -0.0012 -0.0002 0 -0.015 -0.0011 -0.0002 0 -0.0147 -0.0005 -0.0002 0 -0.0152 -0.0005 -0.0002 0 -9.5246 0c-0.3264,0 -0.5934,0.2674 -0.5934,0.5936 0,0.3265 0.267,0.5939 0.5934,0.5939l8.4344 0c0.2733,0 0.4968,0.2233 0.4968,0.4967l0 1.7701zm-22.2101 0.4967l7.482 0c0.3264,0 0.5936,0.2674 0.5936,0.5936 0,0.3265 -0.2672,0.5939 -0.5936,0.5939l-7.482 0c-0.3264,0 -0.5936,-0.2674 -0.5936,-0.5939 0,-0.3262 0.267,-0.5936 0.5936,-0.5936z"/>
  <path class="fil1" d="M54.4827 8.7151c0,-0.3269 0.2669,-0.5938 0.5935,-0.5938 0.3267,0 0.5939,0.2669 0.5939,0.5938 0,0.3264 -0.2672,0.5934 -0.5939,0.5934 -0.3266,0 -0.5935,-0.267 -0.5935,-0.5934zm6.1375 -3.4012l49.4678 0c0.081,0 0.1477,0.0667 0.1477,0.1479l0 0.0012c0,0.0814 -0.0667,0.1479 -0.1477,0.1479l-49.4678 0c-0.081,0 -0.1477,-0.0665 -0.1477,-0.1479l0 -0.0012c0,-0.0812 0.0667,-0.1479 0.1477,-0.1479zm18.5619 10.7418l7.4158 -7.4155c0.2305,-0.231 0.6085,-0.231 0.8393,0 0.231,0.2308 0.2305,0.609 0,0.8395l-7.4155 7.4155c-0.2306,0.2303 -0.6086,0.2306 -0.8396,-0.0002 -0.2307,-0.2308 -0.2307,-0.6088 0,-0.8393zm29.8667 -0.5061l0 -6.4852c0,-0.3264 0.2671,-0.5933 0.5933,-0.5933 0.3269,0 0.5938,0.2669 0.5938,0.5933l0 7.9174c0,0.532 -0.6444,0.7884 -1.0131,0.4197l-6.1657 -6.1517c-0.2308,-0.2303 -0.2308,-0.6088 0.0002,-0.8398 0.2305,-0.231 0.6083,-0.23 0.8393,0l5.1522 5.1396zm-8.1552 1.4322l0 -7.9174c0,-0.3264 0.2667,-0.5933 0.5934,-0.5933 0.3266,0 0.5938,0.2669 0.5938,0.5933l0 7.9174c0,0.3269 -0.2672,0.5938 -0.5938,0.5938 -0.3267,0 -0.5934,-0.2669 -0.5934,-0.5938zm-11.9715 0l0 -0.0002 0 -7.9172 0 -0.0002 0.0002 -0.0147 0 -0.0005 0.0007 -0.0147 0 -0.0002 0.001 -0.0152 0.0011 -0.0147 0 -0.0005 0.0019 -0.0144 0 -0.0003 0.0021 -0.0144 0.0023 -0.015 0.0028 -0.0142 0.0033 -0.0142 0 -0.0003 0.0035 -0.0142 0.0037 -0.014 0 -0.0005 0.0042 -0.0135 0 -0.0002 0.0045 -0.0136 0 -0.0002 0.0049 -0.0138 0 -0.0002 0.0051 -0.0135 0.0056 -0.0133 0.0058 -0.0129 0 -0.0002 0.0061 -0.0128 0 -0.0005 0.0063 -0.0126 0 -0.0002 0.007 -0.0126 0.007 -0.0126 0.0072 -0.0119 0 -0.0003 0.0077 -0.0123 0.0077 -0.0117 0.0082 -0.0119 0.0084 -0.0116 0.0086 -0.0112 0.0091 -0.0112 0.0091 -0.0105 0.0096 -0.0108 0.0098 -0.0105 0.01 -0.0105 0.0101 -0.0098 0.0105 -0.0098 0.0105 -0.0091 0.0109 -0.0095 0.0112 -0.0087 0.0112 -0.0088 0.0117 -0.0084 0.0117 -0.0082 0.0119 -0.0082 0.0002 0 0.0119 -0.0072 0.0124 -0.0075 0.0126 -0.007 0.0126 -0.0067 0.0128 -0.0066 0.0002 0 0.0131 -0.006 0.0131 -0.0056 0.0133 -0.0059 0.0002 0 0.0135 -0.0051 0.0136 -0.0047 0.0137 -0.0044 0.0003 0 0.0137 -0.0042 0.0003 0 0.0139 -0.004 0.0143 -0.0037 0.0144 -0.003 0.0145 -0.0028 0.0145 -0.0021 0.0002 0 0.0147 -0.0024 0.0147 -0.0016 0.0002 0 0.015 -0.0014 0.0149 -0.0012 0.0152 -0.0002 0.0151 -0.0002 0.0003 0 9.4686 0c0.3262,0 0.5933,0.2669 0.5933,0.5931 0,0.3269 -0.2671,0.5938 -0.5933,0.5938l-8.3783 0c-0.2732,0 -0.4967,0.2235 -0.4967,0.4968l0 5.7364c0,0.2735 0.2235,0.4968 0.4967,0.4968l-0.3028 0.0004 0.0002 0 8.6809 0c0.3262,0 0.5933,0.2672 0.5933,0.5932 0,0.3271 -0.2671,0.594 -0.5933,0.594l-9.4686 0 -0.0003 0 -0.0151 -0.0002 -0.0152 -0.0007 -0.0149 -0.0007 -0.015 -0.0014 -0.0002 0 -0.0147 -0.0017 -0.0147 -0.0023 -0.0002 0 -0.0145 -0.0023 -0.0145 -0.0031 -0.0144 -0.003 -0.0143 -0.0033 -0.0139 -0.0039 -0.0003 0 -0.0137 -0.0042 -0.0003 0 -0.0137 -0.0045 -0.0136 -0.0051 -0.0135 -0.0049 -0.0002 0 -0.0133 -0.0054 -0.0131 -0.006 -0.0131 -0.0063 -0.0002 0 -0.0128 -0.0061 -0.0126 -0.0068 -0.0126 -0.007 -0.0124 -0.0072 -0.0119 -0.0079 -0.0002 0 -0.0119 -0.0077 -0.0117 -0.0082 -0.0117 -0.0086 -0.0112 -0.0084 -0.0112 -0.0094 -0.0109 -0.0091 -0.0105 -0.0095 -0.0105 -0.0096 -0.0101 -0.01 -0.01 -0.0103 -0.0098 -0.0103 -0.0096 -0.0107 -0.0091 -0.011 -0.0091 -0.0107 0 -0.0005 -0.0086 -0.0109 -0.0084 -0.0119 -0.0082 -0.0117 -0.0077 -0.0117 -0.0077 -0.0121 -0.0072 -0.0126 -0.007 -0.0126 -0.007 -0.0126 -0.0063 -0.013 -0.0061 -0.0129 -0.0058 -0.013 -0.0056 -0.0136 -0.0051 -0.0137 -0.0049 -0.0133 -0.0045 -0.014 -0.0042 -0.014 -0.0037 -0.0143 -0.0035 -0.014 0 -0.0002 -0.0033 -0.0142 -0.0028 -0.0147 0 -0.0003 -0.0023 -0.0144 -0.0021 -0.0145 0 -0.0005 -0.0019 -0.0147 -0.0011 -0.0149 0 -0.0002 -0.001 -0.0145 0 -0.0002 -0.0007 -0.0152 -0.0002 -0.0154zm2.569 -4.5523l6.2054 0c0.3264,0 0.5936,0.2669 0.5936,0.5936 0,0.3264 -0.2674,0.5936 -0.5936,0.5936l-6.2054 0c-0.3265,0 -0.5936,-0.2672 -0.5936,-0.5936 0,-0.3267 0.2671,-0.5936 0.5936,-0.5936zm-14.467 4.5523l0 -7.9174c0,-0.3264 0.2669,-0.5933 0.5936,-0.5933 0.3264,0 0.5936,0.2669 0.5936,0.5933l0 7.9174c0,0.3269 -0.2672,0.5938 -0.5936,0.5938 -0.3267,0 -0.5936,-0.2669 -0.5936,-0.5938zm-1.9096 0.5938l-7.4507 0c-0.3265,0 -0.5936,-0.2669 -0.5936,-0.5936 0,-0.3264 0.2671,-0.5936 0.5936,-0.5936l6.0173 0 -6.7243 -6.7304 -1.2547 0c-0.3264,0 -0.5938,-0.2667 -0.5938,-0.5936 0,-0.3264 0.2674,-0.5933 0.5938,-0.5933l1.5015 0c0.1648,0 0.3143,0.0679 0.4221,0.1771l7.8962 7.9031 0.0009 0.0005c0.1139,0.1089 0.1853,0.2618 0.1853,0.4302 0,0.3267 -0.2672,0.5936 -0.5936,0.5936zm-10.0195 -0.5936l0 -5.9422c0,-0.3264 0.2669,-0.5934 0.5934,-0.5934 0.3266,0 0.5938,0.2672 0.5938,0.5934l0 5.9422c0,0.3264 -0.2672,0.5936 -0.5938,0.5936 -0.3265,0 -0.5934,-0.2669 -0.5934,-0.5936zm-2.4899 -0.0002l0 -2.8681c0,-0.2735 -0.2233,-0.497 -0.4967,-0.497l-5.0568 0c-0.3264,0 -0.5936,-0.2672 -0.5936,-0.5936 0,-0.3267 0.267,-0.5936 0.5936,-0.5936l5.0568 0c0.2734,0 0.4967,-0.2233 0.4967,-0.4968l0 -2.8683c0,-0.3264 0.2672,-0.5933 0.5936,-0.5933 0.3265,0 0.5939,0.2669 0.5939,0.5933l0 3.9587 0 3.9587c0,0.3266 -0.2674,0.5938 -0.5939,0.5938 -0.3264,0 -0.5936,-0.2672 -0.5936,-0.5938zm-8.1224 0l0 -6.1697c0,-0.3272 0.2669,-0.5939 0.5935,-0.5939 0.3267,0 0.5939,0.2667 0.5939,0.5939l0 6.1697c0,0.3269 -0.2672,0.5938 -0.5939,0.5938 -0.3266,0 -0.5935,-0.2669 -0.5935,-0.5938z"/>
 </g>
</svg>
