<?xml version="1.0" encoding="UTF-8"?>
<!DOCTYPE svg PUBLIC "-//W3C//DTD SVG 1.1//EN" "http://www.w3.org/Graphics/SVG/1.1/DTD/svg11.dtd">
<!-- Creator: CorelDRAW 2021.5 -->
<svg xmlns="http://www.w3.org/2000/svg" xml:space="preserve" width="8.4666mm" height="8.4666mm" version="1.1" style="shape-rendering:geometricPrecision; text-rendering:geometricPrecision; image-rendering:optimizeQuality; fill-rule:evenodd; clip-rule:evenodd"
viewBox="0 0 8.4666 8.4666"
 xmlns:xlink="http://www.w3.org/1999/xlink"
 xmlns:xodm="http://www.corel.com/coreldraw/odm/2003">
 <defs>
  <style type="text/css">
   <![CDATA[
    .fil1 {fill:#2192BE}
    .fil2 {fill:#C72A37}
    .fil0 {fill:white}
   ]]>
  </style>
 </defs>
 <g id="Layer_x0020_1">
  <metadata id="CorelCorpID_0Corel-Layer"/>
  <g id="_2026902784416">
   <path class="fil0" d="M8.4666 4.2334c0,-2.3381 -1.8953,-4.2334 -4.2333,-4.2334 -2.3381,0 -4.2334,1.8953 -4.2334,4.2334 0,2.338 1.8953,4.2333 4.2334,4.2333 2.338,0 4.2333,-1.8953 4.2333,-4.2333z"/>
   <g>
    <path class="fil1" d="M6.9455 5.2762l0 -0.7557c0,-0.072 -0.0589,-0.1308 -0.1309,-0.1308l-1.3321 0c-0.086,0 -0.1564,-0.0704 -0.1564,-0.1565 0,-0.0859 0.0704,-0.1563 0.1564,-0.1563l1.3321 0c0.072,0 0.1309,-0.0588 0.1309,-0.1308l0 -0.7556c0,-0.086 0.0704,-0.1564 0.1563,-0.1564 0.0861,0 0.1565,0.0704 0.1565,0.1564l0 1.0427 0 1.043c0,0.086 -0.0704,0.1564 -0.1565,0.1564 -0.0859,0 -0.1563,-0.0704 -0.1563,-0.1564z"/>
    <rect class="fil1" transform="matrix(2.77347E-14 -0.684035 0.944593 1.63412E-14 4.45124 5.43251)" width="3.5064" height="0.3311" rx="0.1656" ry="0.1656"/>
    <path class="fil2" d="M1.2083 5.2762l0 0 0 -2.0857 0 -0.0001 0.0001 -0.004 0 0 0.0002 -0.0039 0 -0.0001 0.0002 -0.0039 0.0003 -0.004 0 0 0.0005 -0.0039 0 0 0.0006 -0.0039 0 0 0.0006 -0.0038 0 0 0.0007 -0.0038 0.0009 -0.0038 0 -0.0001 0.0009 -0.0037 0 0 0.001 -0.0037 0 0 0.0011 -0.0037 0 0 0.0012 -0.0036 0 -0.0001 0.0013 -0.0035 0 -0.0001 0.0013 -0.0035 0.0015 -0.0036 0.0015 -0.0034 0 -0.0001 0.0016 -0.0034 0 0 0.0017 -0.0034 0 0 0.0018 -0.0033 0 0 0.0018 -0.0033 0.002 -0.0032 0 -0.0001 0.002 -0.0032 0.002 -0.0031 0.0022 -0.0031 0.0022 -0.003 0.0023 -0.003 0 0 0.0024 -0.0029 0.0024 -0.0029 0.0025 -0.0028 0.0026 -0.0028 0.0026 -0.0027 0.0026 -0.0026 0.0001 0 0.0027 -0.0026 0 0 0.0028 -0.0024 0.0029 -0.0025 0.0029 -0.0023 0.003 -0.0023 0 0 0.003 -0.0022 0.0031 -0.0022 0.0032 -0.0021 0 0 0.0032 -0.002 0.0032 -0.0019 0.0033 -0.0019 0 0 0.0034 -0.0017 0.0033 -0.0017 0.0001 0 0.0034 -0.0016 0.0035 -0.0016 0 0 0.0035 -0.0014 0 0 0.0036 -0.0014 0.0036 -0.0013 0 0 0.0036 -0.0012 0 0 0.0037 -0.001 0 0 0.0037 -0.0011 0.0038 -0.0009 0 0 0.0038 -0.0008 0.0038 -0.0008 0 0 0.0038 -0.0006 0.0001 0 0.0038 -0.0005 0.0039 -0.0005 0.0001 0 0.0039 -0.0003 0.0039 -0.0003 0.0001 0 0.0039 -0.0001 0.0001 0 0.0039 -0.0001 0.0001 0 2.4943 0c0.086,0 0.1564,0.0704 0.1564,0.1563 0,0.0861 -0.0704,0.1565 -0.1564,0.1565l-2.207 0c-0.0721,0 -0.1309,0.0588 -0.1309,0.1308l0 1.5112c0,0.072 0.0588,0.1309 0.1309,0.1309l-0.0798 0 0 0 2.2868 0c0.086,0 0.1564,0.0704 0.1564,0.1564 0,0.086 -0.0704,0.1564 -0.1564,0.1564l-2.4943 0 -0.0001 0 -0.0039 -0.0001 -0.0001 0 -0.0039 -0.0001 -0.0001 0 -0.0039 -0.0003 -0.0039 -0.0003 -0.0001 0 -0.0039 -0.0005 -0.0038 -0.0005 -0.0001 0 -0.0038 -0.0006 0 0 -0.0038 -0.0008 -0.0038 -0.0008 0 0 -0.0038 -0.001 -0.0037 -0.001 0 0 -0.0037 -0.0011 0 0 -0.0036 -0.0012 0 0 -0.0036 -0.0012 -0.0036 -0.0014 0 0 -0.0035 -0.0014 0 0 -0.0035 -0.0016 -0.0034 -0.0016 -0.0001 0 -0.0033 -0.0017 -0.0034 -0.0018 0 0 -0.0033 -0.0018 -0.0032 -0.0019 -0.0032 -0.002 0 0 -0.0032 -0.0021 -0.0031 -0.0021 0 -0.0001 -0.003 -0.0022 0 0 -0.003 -0.0023 0 0 -0.0029 -0.0023 -0.0029 -0.0024 0 -0.0001 -0.0028 -0.0025 0 0 -0.0027 -0.0025 -0.0001 0 -0.0026 -0.0026 -0.0026 -0.0027 -0.0026 -0.0028 -0.0025 -0.0028 -0.0024 -0.0029 -0.0024 -0.0029 0 0 -0.0023 -0.003 -0.0022 -0.003 -0.0022 -0.0031 0 0 -0.002 -0.0032 -0.002 -0.0032 -0.002 -0.0032 -0.0018 -0.0033 -0.0018 -0.0034 -0.0017 -0.0034 -0.0016 -0.0034 -0.0015 -0.0035 0 0 -0.0015 -0.0035 0 0 -0.0013 -0.0036 -0.0013 -0.0036 -0.0012 -0.0036 -0.0011 -0.0037 -0.001 -0.0037 0 -0.0001 -0.0009 -0.0037 0 0 -0.0009 -0.0038 0 0 -0.0007 -0.0038 0 0 -0.0006 -0.0039 0 0 -0.0006 -0.0038 0 -0.0001 -0.0005 -0.0039 0 0 -0.0003 -0.0039 0 0 -0.0002 -0.004 0 0 -0.0002 -0.004 0 0 -0.0001 -0.004zm0.6768 -1.1993l1.6347 0c0.086,0 0.1564,0.0704 0.1564,0.1563 0,0.0861 -0.0704,0.1565 -0.1564,0.1565l-1.6347 0c-0.086,0 -0.1564,-0.0704 -0.1564,-0.1565 0,-0.0859 0.0704,-0.1563 0.1564,-0.1563z"/>
   </g>
  </g>
 </g>
</svg>
